<svg width="329" height="163" viewBox="0 0 329 163" fill="none" xmlns="http://www.w3.org/2000/svg">
<rect x="1" y="1" width="327" height="161" rx="16" fill="white" stroke="#D0DBEA" stroke-width="2" stroke-linecap="round" stroke-linejoin="round" stroke-dasharray="6 6"/>
<path d="M70.7138 118.631H72.9297V116H79.5082V118.621H81.7241V114.162H80.5309V105.091H73.3133L73.0043 109.704C72.8179 112.559 72.2053 113.619 71.4542 114.162H70.7138V118.631ZM74.1176 114.162C74.6662 113.262 75.0764 111.861 75.2202 109.704L75.3907 106.993H78.315V114.162H74.1176ZM87.2805 116.16C89.7627 116.16 91.3075 114.461 91.3075 111.941C91.3075 109.406 89.7627 107.712 87.2805 107.712C84.7983 107.712 83.2535 109.406 83.2535 111.941C83.2535 114.461 84.7983 116.16 87.2805 116.16ZM87.2911 114.402C86.1459 114.402 85.56 113.353 85.56 111.925C85.56 110.498 86.1459 109.443 87.2911 109.443C88.4151 109.443 89.001 110.498 89.001 111.925C89.001 113.353 88.4151 114.402 87.2911 114.402ZM100.085 104.814C99.6857 105.096 99.0465 105.091 98.1729 105.091C97.9652 105.091 97.7468 105.086 97.5124 105.091C94.5348 105.118 92.9794 106.982 92.9794 110.924V111.595C92.9794 114.567 94.5135 116.16 96.9904 116.16C99.462 116.16 100.991 114.567 100.991 112.069C100.991 109.672 99.5898 108.239 97.5017 108.239C96.186 108.239 95.3018 108.809 94.8117 109.81H94.7318C94.9236 107.802 95.6907 106.977 97.587 106.955C99.2649 106.929 100.08 106.87 100.778 106.295L100.085 104.814ZM97.001 114.402C95.9304 114.402 95.2858 113.539 95.2858 112.143C95.2965 110.748 95.9357 109.96 96.9904 109.96C98.0397 109.96 98.6843 110.748 98.6843 112.143C98.6843 113.544 98.0397 114.402 97.001 114.402ZM105.33 116.154C106.539 116.154 107.322 115.627 107.722 114.865H107.786V116H109.938V110.482C109.938 108.532 108.286 107.712 106.465 107.712C104.504 107.712 103.215 108.649 102.901 110.141L105 110.311C105.154 109.768 105.639 109.368 106.454 109.368C107.226 109.368 107.668 109.757 107.668 110.428V110.46C107.668 110.988 107.109 111.057 105.687 111.195C104.068 111.344 102.613 111.888 102.613 113.715C102.613 115.334 103.769 116.154 105.33 116.154ZM105.98 114.588C105.282 114.588 104.781 114.263 104.781 113.64C104.781 113.001 105.309 112.687 106.108 112.575C106.603 112.506 107.413 112.388 107.684 112.207V113.076C107.684 113.933 106.976 114.588 105.98 114.588ZM112.198 116H116.225C118.27 116 119.41 115.164 119.41 113.768C119.41 112.692 118.558 111.84 117.088 111.733C118.26 111.531 118.958 110.913 118.958 110.029C118.958 108.612 117.706 107.818 115.687 107.818H112.198V116ZM114.313 114.301V112.516H116.225C116.854 112.516 117.237 112.873 117.237 113.454C117.237 113.981 116.854 114.301 116.225 114.301H114.313ZM114.313 111.185V109.555H115.687C116.39 109.555 116.822 109.858 116.822 110.359C116.822 110.876 116.411 111.185 115.735 111.185H114.313ZM123.509 113.006V107.818H121.341V116H123.594L126.529 110.796V116H128.691V107.818H126.454L123.509 113.006ZM130.204 109.603H132.819V116H134.982V109.603H137.618V107.818H130.204V109.603ZM141.662 110.332V107.818H139.494V116H143.361C145.529 116 146.802 114.865 146.807 113.177C146.802 111.456 145.529 110.332 143.361 110.332H141.662ZM141.662 112.117H143.361C144.123 112.117 144.661 112.564 144.671 113.193C144.661 113.789 144.123 114.216 143.361 114.216H141.662V112.117ZM158.388 107.818H152.784V116H154.989V109.603H158.388V107.818ZM159.133 116H159.814C161.551 116 162.473 114.849 162.611 112.101L162.739 109.603H164.758V116H166.92V107.818H160.699L160.566 111.44C160.486 113.512 160.166 114.2 159.394 114.2H159.122L159.133 116ZM171.513 116.154C172.722 116.154 173.505 115.627 173.904 114.865H173.968V116H176.12V110.482C176.12 108.532 174.469 107.712 172.647 107.712C170.687 107.712 169.398 108.649 169.084 110.141L171.182 110.311C171.337 109.768 171.822 109.368 172.636 109.368C173.409 109.368 173.851 109.757 173.851 110.428V110.46C173.851 110.988 173.292 111.057 171.869 111.195C170.25 111.344 168.796 111.888 168.796 113.715C168.796 115.334 169.952 116.154 171.513 116.154ZM172.162 114.588C171.465 114.588 170.964 114.263 170.964 113.64C170.964 113.001 171.491 112.687 172.29 112.575C172.786 112.506 173.595 112.388 173.867 112.207V113.076C173.867 113.933 173.159 114.588 172.162 114.588ZM178.381 116H182.408C184.453 116 185.593 115.164 185.593 113.768C185.593 112.692 184.741 111.84 183.271 111.733C184.442 111.531 185.14 110.913 185.14 110.029C185.14 108.612 183.888 107.818 181.87 107.818H178.381V116ZM180.495 114.301V112.516H182.408C183.036 112.516 183.42 112.873 183.42 113.454C183.42 113.981 183.036 114.301 182.408 114.301H180.495ZM180.495 111.185V109.555H181.87C182.573 109.555 183.004 109.858 183.004 110.359C183.004 110.876 182.594 111.185 181.918 111.185H180.495ZM189.691 107.818H187.523V116H189.691V112.788H192.488V116H194.64V107.818H192.488V111.004H189.691V107.818ZM200.597 116.16C203.079 116.16 204.624 114.461 204.624 111.941C204.624 109.406 203.079 107.712 200.597 107.712C198.115 107.712 196.57 109.406 196.57 111.941C196.57 114.461 198.115 116.16 200.597 116.16ZM200.608 114.402C199.462 114.402 198.876 113.353 198.876 111.925C198.876 110.498 199.462 109.443 200.608 109.443C201.731 109.443 202.317 110.498 202.317 111.925C202.317 113.353 201.731 114.402 200.608 114.402ZM210.328 116.16C212.352 116.16 213.716 115.174 214.035 113.656L211.937 113.518C211.708 114.141 211.122 114.466 210.365 114.466C209.231 114.466 208.512 113.715 208.512 112.495V112.49H214.083V111.866C214.083 109.086 212.4 107.712 210.238 107.712C207.83 107.712 206.269 109.422 206.269 111.946C206.269 114.54 207.809 116.16 210.328 116.16ZM208.512 111.083C208.56 110.151 209.268 109.406 210.275 109.406C211.26 109.406 211.942 110.109 211.947 111.083H208.512ZM223.951 118.781H226.215V116.16C228.718 116.16 230.46 114.434 230.46 111.941C230.46 109.432 228.718 107.712 226.215 107.712V105.091H223.951V107.712C221.447 107.712 219.706 109.432 219.706 111.941C219.706 114.434 221.447 116.16 223.951 116.16V118.781ZM226.215 114.391V109.48C227.435 109.48 228.133 110.572 228.133 111.941C228.133 113.31 227.435 114.391 226.215 114.391ZM223.951 114.391C222.742 114.391 222.039 113.31 222.039 111.941C222.039 110.572 222.731 109.48 223.951 109.48V114.391ZM236.142 116.16C238.624 116.16 240.169 114.461 240.169 111.941C240.169 109.406 238.624 107.712 236.142 107.712C233.66 107.712 232.115 109.406 232.115 111.941C232.115 114.461 233.66 116.16 236.142 116.16ZM236.152 114.402C235.007 114.402 234.421 113.353 234.421 111.925C234.421 110.498 235.007 109.443 236.152 109.443C237.276 109.443 237.862 110.498 237.862 111.925C237.862 113.353 237.276 114.402 236.152 114.402ZM241.352 109.603H243.967V116H246.13V109.603H248.767V107.818H241.352V109.603ZM254.046 116.16C256.528 116.16 258.073 114.461 258.073 111.941C258.073 109.406 256.528 107.712 254.046 107.712C251.564 107.712 250.019 109.406 250.019 111.941C250.019 114.461 251.564 116.16 254.046 116.16ZM254.057 114.402C252.912 114.402 252.326 113.353 252.326 111.925C252.326 110.498 252.912 109.443 254.057 109.443C255.181 109.443 255.767 110.498 255.767 111.925C255.767 113.353 255.181 114.402 254.057 114.402Z" fill="#3E5481"/>
<path fill-rule="evenodd" clip-rule="evenodd" d="M152.443 76.6667H175.554C184.595 76.6667 190.667 70.3251 190.667 60.8888V39.1113C190.667 29.675 184.595 23.3334 175.557 23.3334H152.443C143.405 23.3334 137.333 29.675 137.333 39.1113V60.8888C137.333 70.3251 143.405 76.6667 152.443 76.6667ZM154.664 47.3334C150.987 47.3334 148 44.3421 148 40.6667C148 36.9913 150.987 34 154.664 34C158.337 34 161.327 36.9913 161.327 40.6667C161.327 44.3421 158.337 47.3334 154.664 47.3334ZM184.856 57.8239C185.748 60.1136 185.285 62.8655 184.33 65.1332C183.198 67.8301 181.032 69.8721 178.302 70.7637C177.09 71.16 175.819 71.3334 174.55 71.3334H152.076C149.84 71.3334 147.861 70.7967 146.239 69.7978C145.222 69.1703 145.043 67.7228 145.796 66.7844C147.057 65.2157 148.301 63.6416 149.556 62.0537C151.948 59.0155 153.559 58.1349 155.351 58.9082C156.077 59.2274 156.807 59.7063 157.557 60.2126C159.558 61.5721 162.339 63.4407 166.002 61.4125C168.508 60.0086 169.962 57.6004 171.228 55.5033L171.249 55.4682C171.339 55.3211 171.428 55.174 171.517 55.0273L171.517 55.0272C171.942 54.3232 172.362 53.6286 172.837 52.9887C173.432 52.1879 175.639 49.6836 178.498 51.4668C180.318 52.5897 181.85 54.1087 183.488 55.7352C184.113 56.3571 184.558 57.0644 184.856 57.8239Z" fill="#9FA5C0"/>
</svg>
